#!OML:ASF F:\VICON\USERDATA\INSTALL\rory3\rory3.ASF
:FULLY-SPECIFIED
:DEGREES
51
root 0.1210396436554671 18.12035402859193 8.010104207571356 -3.4121099018417436 0.04601700707044665 -4.3834525701385125
lfemur -12.535578268316584 -0.1505902105330832 -14.103737697813886
ltibia 58.132367962694715
lfoot -3.255908825516257 -4.746889477173388
ltoes -4.38808887248199
rfemur -15.584177412014325 5.972572760269799 28.345917429682544
rtibia 37.532687500328095
rfoot -8.427003887868723 -4.64932640705572
rtoes 4.633686728795584
lowerback 9.655649850715303 -0.1316567502538588 2.4273069841904884
upperback 0.41697280385814306 0.6649594010175043 2.397069046249948
thorax -5.025944655847943 0.28818944926054324 0.9372849171765432
lowerneck -15.927844949675181 -2.6653684157727597 -2.067681549226475
upperneck 21.895556175793832 -3.290875909679147 0.6222416416466168
head 9.493529973329373 -1.7366080486015705 -0.004592248456638304
lclavicle -1.3879679698297073e-15 -1.8442003053439033e-15
lhumerus -32.94309689595675 1.7171450344960648 83.33403759749956
lradius 21.56666907996314
lwrist 2.6636678704833763
lhand -27.64543012252196 23.519206256771977
lfingers 7.125019999999999
lthumb -0.7181463489378599 54.03860680337763
rclavicle -1.3889733828632028e-15 -1.8451345543788865e-15
rhumerus -31.09148752774938 -27.729316328237857 -73.96287992787708
rradius 21.515556164315328
rwrist 9.771659264401748
rhand -18.28494600312519 22.923402188658358
rfingers 7.125019999999999
rthumb 7.912703209419465 -7.109102766901208
52
root 0.10163427463890229 18.116956344202517 8.520488055044417 -3.5273472023083174 -0.4595014616065931 -4.7527639594737146
lfemur -16.93842540836932 1.4761869005680763 -13.686717292417839
ltibia 58.62905198238841
lfoot -4.083061876083786 -3.5588719780982796
ltoes -4.837885555228572
rfemur -13.426211476828257 6.0662499966393675 28.948387922377655
rtibia 36.32861199539753
rfoot -8.670416340265252 -4.3079374592673165
rtoes 4.42854550331289
lowerback 9.708895516374877 0.15370571783196585 2.7912284665216225
upperback 0.4009513632665908 1.213302184136424 2.3049835850567293
thorax -5.076806279969453 0.48782400601220055 0.48384889360126804
lowerneck -15.847580155438779 -2.6620769254613674 -2.003096125769263
upperneck 21.860994639346018 -3.3111020338276163 0.6967260412964359
head 9.470477579554885 -1.762153337330073 -0.0031665683217375618
lclavicle -1.3879679701940988e-15 -1.844200305682503e-15
lhumerus -33.79630335019165 2.231354227927703 83.23024098428527
lradius 20.336483836387607
lwrist 1.8302336536403156
lhand -27.536796614713175 23.662819798548714
lfingers 7.125019999999999
lthumb -0.7249279095779366 54.0014655162068
rclavicle -1.388973382594115e-15 -1.845134554128845e-15
rhumerus -29.189495353331697 -24.718953312535998 -76.08326633314374
rradius 21.61633502842002
rwrist 8.73246541458292
rhand -18.30784133158815 22.828252561893976
rfingers 7.125019999999999
rthumb 7.9157651070770285 -7.129450042586915
53
root 0.09670738035369986 18.093583547606165 9.137594256374127 -3.4831637504636013 -0.9941681505509425 -5.14928725314642
lfemur -21.048340357861782 2.757235576439472 -13.39375182551726
ltibia 57.39712616111311
lfoot -3.8613717499324234 -2.3713295348652625
ltoes -4.824036160758169
rfemur -11.003582348811236 6.165528585804547 29.750688918535282
rtibia 34.995098024065996
rfoot -8.603305894710909 -3.883323399060367
rtoes 4.354821839763715
lowerback 9.82874046255615 0.4675738852125447 3.3363910169872937
upperback 0.3454652183316706 1.7886032516217014 2.250401607421447
thorax -5.137295994395831 0.6817598373337765 0.007193425835731571
lowerneck -15.84758734834795 -2.673730842397459 -1.9788447868334267
upperneck 21.86223285025788 -3.271872568644676 0.743182761705165
head 9.454913780178048 -1.7688376683715317 0.009304179636324128
lclavicle -1.38796797004113e-15 -1.8442003055403613e-15
lhumerus -34.58738203050603 3.0185650071171137 82.9824516599814
lradius 19.256759107535864
lwrist 0.8375357840846389
lhand -27.614735262425473 23.449847210839664
lfingers 7.125019999999999
lthumb -0.8381340584265901 53.786119853080585
rclavicle -1.388973382732798e-15 -1.845134554257712e-15
rhumerus -27.579844344548782 -21.553815620016763 -77.9440507629415
rradius 21.757662390011483
rwrist 7.729757961465514
rhand -18.30058705721144 22.84290550861178
rfingers 7.125019999999999
rthumb 7.931224906574413 -7.079010529136417
54
root 0.1049782790149067 18.058002447527652 10.027086365940429 -3.2518991996685935 -1.4938386158402333 -5.5876082502528295
lfemur -24.669493010115907 3.4387795986615686 -13.076515699487834
ltibia 54.40358891906017
lfoot -3.9057105488430595 -1.943865285130328
ltoes -4.716125088226665
rfemur -8.96616645417767 6.096435190848753 30.519620912767238
rtibia 33.876395434041505
rfoot -8.326238395061496 -3.5372783451791836
rtoes 4.20067962438062
lowerback 9.905326179199161 0.7391787439207624 3.860023634957333
upperback 0.2738937775525139 2.336372812087398 2.2215872701012636
thorax -5.196022283955264 0.8467032850262242 -0.4970826725482702
lowerneck -15.880771066026067 -2.6609665092428605 -1.9471656839336577
upperneck 21.841829385649287 -3.2017963413429578 0.7429771705822179
head 9.434859948398822 -1.7623100278922272 0.01873302027846152
lclavicle -1.3879679698761365e-15 -1.8442003053870465e-15
lhumerus -35.355276050937526 4.039285545771603 82.55247610816467
lradius 18.426296205373525
lwrist -0.18609441428966056
lhand -27.462900739061297 23.645755484818583
lfingers 7.125019999999999
lthumb -0.8237704220981723 53.787730502921065
rclavicle -1.3889733826070537e-15 -1.8451345541408678e-15
rhumerus -26.11810744798364 -18.54332214318589 -79.40803697654506
rradius 21.986203720587106
rwrist 6.843345066415261
rhand -18.334663310464663 22.76575272032817
rfingers 7.125019999999999
rthumb 7.937064921376786 -7.106048507704732
55
root 0.1213444330575334 18.01587677615629 10.886903597853406 -2.8412082197986055 -1.9542623756341995 -6.065203213748031
lfemur -27.35999066597269 3.4454732791217353 -12.658571062118195
ltibia 49.721071320961016
lfoot -3.9544631302850837 -1.7954622676965541
ltoes -4.71233952294876
rfemur -7.341986674089358 5.965584538241238 31.20738446619253
rtibia 33.11092861608716
rfoot -8.021413933355216 -3.4491964882229738
rtoes 3.9571962578887976
lowerback 9.911537611039092 0.9883938233077436 4.3821073585812975
upperback 0.18559345447558823 2.79353865390416 2.192162578097408
thorax -5.206281420748521 1.0218740916406102 -0.8742558683254769
lowerneck -15.942232290030365 -2.65481026161653 -1.9310462509372597
upperneck 21.837468084343374 -3.104452211475625 0.7550781815950695
head 9.407574267897198 -1.7555468023304326 0.014781074387220983
lclavicle -1.3879679703507912e-15 -1.8442003058281046e-15
lhumerus -35.909571515160295 5.320634015176184 82.02606537631482
lradius 17.802433871157096
lwrist -0.7033429304642027
lhand -27.571951143369265 23.391121997587824
lfingers 7.125019999999999
lthumb -0.9081986053035178 53.60718407174221
rclavicle -1.3889733827217146e-15 -1.845134554247413e-15
rhumerus -24.85343519873188 -16.072854870041855 -80.50716408288135
rradius 22.278416713332515
rwrist 5.9654714033803735
rhand -18.326371010619813 22.782985607096307
rfingers 7.125019999999999
rthumb 7.944424443278656 -7.062854220931975
56
root 0.1376275657172759 17.969263609868612 11.425220820679314 -2.2827259903170245 -2.4173989125634394 -6.62781034361319
lfemur -29.090369575047987 2.5691187307723977 -12.19149937220082
ltibia 43.42516977930843
lfoot -4.156179523979132 -1.8522771372753992
ltoes -4.669784534682213
rfemur -5.271782064093136 6.060499843280528 31.911036753677084
rtibia 32.80160447124726
rfoot -7.90923787321283 -3.7117106686909267
rtoes 3.593348355613603
lowerback 9.832836170668834 1.2515176351073714 4.961592632571923
upperback 0.08732717125223174 3.0746872084027124 2.1441333888599
thorax -5.182168047566781 1.1674379200888705 -1.2043984417907267
lowerneck -15.968056697983327 -2.637272690469352 -1.8938525975051481
upperneck 21.783784238161473 -3.0463965330643084 0.7384986990665604
head 9.38267112956332 -1.7556419718312182 0.01848550429099427
lclavicle -1.387967970052794e-15 -1.8442003055512e-15
lhumerus -36.36702567879855 6.513857626341028 81.43497770833933
lradius 17.561316630971042
lwrist -1.2286919976676303
lhand -27.461290925529724 23.562270183573702
lfingers 7.125019999999999
lthumb -0.8504891269044204 53.68665125191065
rclavicle -1.3889733828001897e-15 -1.8451345543203337e-15
rhumerus -23.64967354341883 -14.194334872999024 -81.27404481746427
rradius 22.61319725972249
rwrist 4.771024654439213
rhand -18.381866245578586 22.723765431359723
rfingers 7.125019999999999
rthumb 7.908570619452891 -7.087942502254719
57
root 0.15409428595509128 17.91777874563012 11.66893584234908 -1.6606342285466784 -2.8879885603363196 -7.177346964547278
lfemur -29.67054014666038 0.5211140363445481 -11.40571738768254
ltibia 36.44773787825507
lfoot -4.878151411128785 -1.7712935025320977
ltoes -4.842942807237707
rfemur -3.6244211962119746 6.165836054611655 32.23019687837344
rtibia 33.149224361348125
rfoot -7.908242074938922 -4.114648116467814
rtoes 3.1937706627692712
lowerback 9.66553832127848 1.4935759070557015 5.4784846692809355
upperback 0.015199008858158475 3.2523528974550593 2.093033329687853
thorax -5.12700516300022 1.2864172291824074 -1.4247273399390366
lowerneck -15.981893199257428 -2.6428212913552853 -1.85719229019531
upperneck 21.696993546711095 -3.0477499265066665 0.7354684737885976
head 9.375574691156238 -1.7573155549651793 0.03488206895528573
lclavicle -1.3879679702014296e-15 -1.8442003056893148e-15
lhumerus -36.61252143197444 7.657264638209383 80.89380028458282
lradius 17.781446686979628
lwrist -1.5321594749811385
lhand -27.61460613325796 23.282701353450136
lfingers 7.125019999999999
lthumb -0.9332474904212468 53.518099936325605
rclavicle -1.3889733827533267e-15 -1.8451345542767873e-15
rhumerus -22.534547457855723 -12.994216590975787 -81.80734442282264
rradius 23.050356251878437
rwrist 3.768913194246682
rhand -18.349866227259323 22.787749337273244
rfingers 7.125019999999999
rthumb 7.9051701305677184 -7.09417901161515
58
root 0.17969092219562194 17.860520361719406 12.052547391512103 -1.0812394572730128 -3.3252807246136245 -7.573447561066464
lfemur -29.19518192558138 -2.8948805793728885 -10.056890481005476
ltibia 30.602069322773172
lfoot -5.748640325005656 -1.7637700011094282
ltoes -4.9123812539670375
rfemur -2.094988410397173 6.242837075772716 32.348353065151066
rtibia 34.29956248326674
rfoot -7.643141906176153 -4.330186646343416
rtoes 2.9430198750458123
lowerback 9.489894645115792 1.7142515067761441 5.868117546354618
upperback -0.030791853373125594 3.346445860086023 2.0274448820540916
thorax -5.063289201209359 1.3762439696784257 -1.5269351188125484
lowerneck -15.95973987446789 -2.6550238850392156 -1.8190335613123
upperneck 21.597746613230903 -3.1125787624335324 0.7539429438106744
head 9.346613300237282 -1.778752895266331 0.03677687544493696
lclavicle -1.3879679700426126e-15 -1.8442003055417394e-15
lhumerus -36.90021178997692 8.553378733370536 80.36768852743687
lradius 18.403835531896696
lwrist -1.5898180439465492
lhand -27.575630936278312 23.386974287568872
lfingers 7.125019999999999
lthumb -0.8177007508732361 53.69679179050661
rclavicle -1.3889733827516042e-15 -1.8451345542751867e-15
rhumerus -21.59749363873621 -12.347157393472065 -82.09828878132235
rradius 23.598166117275362
rwrist 2.780124542953026
rhand -18.389663550411058 22.747350719054943
rfingers 7.125019999999999
rthumb 7.906264745800947 -7.1077438427466335
